<?xml version="1.0" standalone="no"?>
<!DOCTYPE svg PUBLIC "-//W3C//DTD SVG 20010904//EN"
 "http://www.w3.org/TR/2001/REC-SVG-20010904/DTD/svg10.dtd">
<svg version="1.0" xmlns="http://www.w3.org/2000/svg"
 width="300.000000pt" height="168.000000pt" viewBox="0 0 300.000000 168.000000"
 preserveAspectRatio="xMidYMid meet">

<g transform="translate(0.000000,168.000000) scale(0.100000,-0.100000)"
fill="#000000" stroke="none">
<path d="M0 840 l0 -840 1500 0 1500 0 0 840 0 840 -1500 0 -1500 0 0 -840z
m1650 660 c0 -5 -7 -7 -15 -4 -8 4 -15 8 -15 10 0 2 7 4 15 4 8 0 15 -4 15
-10z m823 -30 c-21 -37 -210 -225 -226 -225 -7 -1 -11 -6 -10 -13 3 -14 -13
-16 -21 -3 -4 5 7 21 24 34 16 14 30 30 30 35 0 5 14 26 30 47 17 21 30 44 30
51 0 22 112 100 148 103 10 1 8 -7 -5 -29z m-249 12 c8 -14 -9 -31 -48 -47
-21 -9 -41 -25 -43 -36 -3 -12 -11 -18 -19 -15 -12 4 -239 -109 -269 -134 -6
-5 -23 -11 -38 -14 -15 -3 -50 -19 -78 -35 -27 -17 -52 -31 -54 -31 -3 0 -42
-18 -88 -41 -120 -60 -240 -94 -172 -49 17 11 26 20 20 20 -5 0 4 9 20 20 43
29 18 25 -63 -10 -84 -35 -82 -35 -82 -11 0 11 24 36 60 62 57 42 69 52 53 47
-14 -5 -15 7 -2 34 11 26 9 30 -27 62 -21 20 -43 34 -49 31 -49 -22 -255 -104
-275 -109 -19 -6 -21 -5 -10 3 21 15 10 14 -39 -4 -22 -8 -64 -18 -92 -23
l-51 -10 23 22 c34 30 254 124 384 162 61 18 164 49 229 69 116 34 165 41 118
16 -12 -6 -22 -16 -22 -22 0 -6 5 -7 10 -4 6 3 10 2 10 -3 0 -5 10 -13 23 -17
35 -10 2 -17 -35 -7 -56 15 -134 -6 -80 -22 9 -3 -3 -3 -28 -1 -32 3 -59 -2
-95 -19 l-50 -23 32 -16 c38 -20 72 -21 96 -3 14 11 15 15 5 19 -7 3 -3 6 9 6
15 1 21 -4 17 -13 -4 -10 2 -12 20 -9 19 4 26 1 26 -11 0 -27 39 -18 93 20 62
45 148 84 184 84 21 0 24 -2 13 -15 -7 -8 -20 -15 -30 -15 -10 0 -23 -7 -30
-16 -8 -8 -43 -32 -79 -54 -36 -21 -82 -55 -101 -75 l-35 -37 51 25 c28 14 90
42 137 62 47 19 133 60 190 90 87 46 223 103 249 105 4 0 9 -4 12 -8z m-809
-12 c3 -6 -1 -7 -9 -4 -18 7 -21 14 -7 14 6 0 13 -4 16 -10z m330 0 c4 -6 -7
-10 -25 -10 -18 0 -29 4 -25 10 3 6 15 10 25 10 10 0 22 -4 25 -10z m-495 -14
c0 -5 -187 -96 -195 -96 -3 0 -31 -13 -63 -28 -33 -16 -72 -32 -88 -35 -16 -3
-38 -9 -49 -12 -11 -4 10 11 46 33 36 22 84 45 105 52 21 7 59 21 84 32 94 43
160 65 160 54z m-370 -36 c0 -5 -4 -10 -10 -10 -5 0 -10 5 -10 10 0 6 5 10 10
10 6 0 10 -4 10 -10z m-165 -30 c0 -14 -52 -36 -62 -26 -9 8 38 47 51 43 6 -2
11 -10 11 -17z m105 16 c0 -2 -7 -7 -16 -10 -8 -3 -12 -2 -9 4 6 10 25 14 25
6z m310 -51 c-14 -17 -40 -20 -40 -5 0 11 42 31 49 24 2 -2 -2 -10 -9 -19z
m-1005 -23 c-3 -3 -11 0 -18 7 -9 10 -8 11 6 5 10 -3 15 -9 12 -12z m2075
-121 c0 -11 -9 -21 -22 -24 -33 -9 -36 2 -8 23 31 24 30 24 30 1z m-910 -211
c-8 -5 -17 -7 -19 -4 -3 3 1 9 9 14 8 5 17 7 19 4 3 -3 -1 -9 -9 -14z m-260
-10 c0 -5 -5 -10 -11 -10 -5 0 -7 5 -4 10 3 6 8 10 11 10 2 0 4 -4 4 -10z
m-90 -86 c-18 -21 -24 -10 -8 15 7 12 14 17 16 11 2 -6 -2 -17 -8 -26z m-70
-4 c0 -5 3 -9 8 -9 24 4 35 -2 25 -12 -8 -8 -17 -8 -32 1 -17 9 -22 8 -27 -4
-5 -12 -11 -13 -30 -4 -25 12 -34 31 -10 22 8 -3 23 -1 33 5 23 13 33 14 33 1z
m-275 -20 c4 -6 -6 -10 -22 -9 -25 0 -26 1 -8 9 11 5 21 9 22 9 1 1 5 -3 8 -9z
m-65 -20 c0 -5 -5 -10 -11 -10 -5 0 -7 5 -4 10 3 6 8 10 11 10 2 0 4 -4 4 -10z
m230 2 c0 -5 -7 -17 -15 -28 -15 -19 -20 -8 -9 20 6 17 24 22 24 8z m40 -37
c18 11 11 -1 -15 -25 l-26 -24 3 31 c2 24 5 29 15 22 7 -6 17 -8 23 -4z m354
-31 c4 -9 4 -19 2 -21 -8 -8 -26 8 -26 23 0 19 16 18 24 -2z m-464 -9 c-7 -8
-17 -12 -22 -9 -6 4 -5 10 3 15 22 14 33 10 19 -6z m-123 -50 c0 -8 -4 -12 -9
-9 -5 3 -6 10 -3 15 9 13 12 11 12 -6z m100 -7 c-3 -8 -6 -5 -6 6 -1 11 2 17
5 13 3 -3 4 -12 1 -19z m347 -14 c3 -8 2 -12 -4 -9 -6 3 -10 10 -10 16 0 14 7
11 14 -7z m-414 -8 c0 -2 -7 -6 -15 -10 -8 -3 -15 -1 -15 4 0 6 7 10 15 10 8
0 15 -2 15 -4z m1327 -328 c-3 -8 -6 -5 -6 6 -1 11 2 17 5 13 3 -3 4 -12 1
-19z m62 -14 c9 -8 -23 -84 -35 -84 -8 0 -11 6 -8 15 4 8 3 22 0 31 -5 14 -9
14 -23 3 -14 -12 -14 -9 2 18 15 26 24 32 40 27 11 -4 22 -8 24 -10z m151
-113 c23 -7 22 -9 -19 -20 -47 -13 -57 -10 -48 14 7 16 26 18 67 6z m148 -7
c30 -14 52 -57 39 -71 -4 -3 0 -18 8 -34 21 -40 19 -52 -5 -37 -11 7 -20 18
-20 25 0 7 -7 10 -15 7 -9 -4 -15 -1 -15 7 0 8 -6 5 -15 -7 -14 -19 -14 -18
-15 3 0 15 -5 21 -14 17 -11 -4 -13 0 -9 18 4 18 2 20 -6 8 -8 -12 -12 -10
-20 12 -5 14 -16 28 -23 31 -7 3 -4 6 8 6 12 1 27 8 34 16 16 19 29 19 68 -1z
m56 -10 c4 -10 1 -14 -6 -12 -15 5 -23 28 -10 28 5 0 13 -7 16 -16z m-161 -31
c10 -18 18 -67 10 -58 -16 18 -33 65 -23 65 5 0 11 -3 13 -7z m403 -46 c3 -3
-2 -17 -13 -31 -24 -33 -77 -36 -93 -5 -11 20 -12 20 -26 2 -14 -17 -14 -17
-4 4 5 12 18 27 28 33 16 10 97 8 108 -3z"/>
<path d="M1540 1301 c0 -6 4 -13 10 -16 6 -3 7 1 4 9 -7 18 -14 21 -14 7z"/>
</g>
</svg>
