<?xml version="1.0" standalone="no"?>
<!DOCTYPE svg PUBLIC "-//W3C//DTD SVG 20010904//EN"
 "http://www.w3.org/TR/2001/REC-SVG-20010904/DTD/svg10.dtd">
<svg version="1.0" xmlns="http://www.w3.org/2000/svg"
 width="281.000000pt" height="180.000000pt" viewBox="0 0 281.000000 180.000000"
 preserveAspectRatio="xMidYMid meet">

<g transform="translate(0.000000,180.000000) scale(0.100000,-0.100000)"
fill="#000000" stroke="none">
<path d="M0 1265 c0 -527 0 -536 19 -525 24 12 34 13 27 1 -4 -5 0 -12 6 -14
7 -3 4 -6 -8 -6 -43 -2 -44 -8 -44 -373 l0 -348 1405 0 1405 0 0 900 0 900
-1405 0 -1405 0 0 -535z m1680 414 c0 -18 -2 -19 -15 -9 -15 12 -12 30 6 30 5
0 9 -10 9 -21z m-727 -89 c-3 -21 -47 -137 -82 -214 -48 -105 -65 -80 -24 34
52 145 78 200 93 197 8 -1 14 -9 13 -17z m832 0 c3 -5 1 -10 -4 -10 -6 0 -11
5 -11 10 0 6 2 10 4 10 3 0 8 -4 11 -10z m-788 -96 c-3 -3 -12 -4 -19 -1 -8 3
-5 6 6 6 11 1 17 -2 13 -5z m1499 -399 c10 -25 -16 -46 -50 -43 -41 4 -47 32
-9 46 40 15 53 14 59 -3z m-187 -70 c-12 -12 -109 -45 -131 -45 -34 0 50 50
122 72 20 7 26 -11 9 -27z m-754 15 c-10 -16 -45 -32 -45 -20 0 5 7 10 15 10
8 0 15 5 15 10 0 6 5 10 11 10 5 0 7 -4 4 -10z m-180 -10 c8 -13 -5 -13 -25 0
-13 8 -13 10 2 10 9 0 20 -4 23 -10z m-550 -25 c50 -7 93 -11 98 -8 4 2 7 0 7
-6 0 -5 17 -9 37 -8 36 2 38 1 35 -28 -1 -16 2 -36 7 -44 8 -13 12 -13 26 -1
18 15 57 22 49 8 -8 -13 9 -9 30 7 15 12 51 15 153 15 118 0 159 -8 121 -23
-8 -3 -6 -6 5 -6 9 -1 17 -5 17 -11 0 -5 -28 -11 -62 -11 -35 -1 -55 -3 -45
-6 9 -2 15 -8 13 -12 -3 -4 18 -18 47 -31 67 -30 109 -59 104 -73 -6 -18 24
-45 44 -40 20 6 26 -18 13 -51 -7 -18 -49 -22 -59 -6 -9 14 -43 12 -47 -2 -3
-7 -11 1 -19 17 -16 35 -52 44 -78 21 -15 -14 -18 -13 -29 4 -25 40 -92 8 -92
-45 0 -8 -4 -15 -10 -15 -9 0 -14 15 -7 23 6 9 -28 37 -39 33 -7 -3 -15 6 -18
19 -3 13 -15 26 -25 30 -11 3 -33 21 -50 40 -17 19 -38 35 -48 35 -15 0 -16 2
-3 10 13 8 12 10 -3 10 -10 0 -15 5 -12 10 3 6 2 10 -4 10 -18 0 -41 -12 -41
-22 0 -6 8 -7 18 -3 13 5 14 4 5 -6 -9 -9 -16 -9 -26 -1 -9 8 -17 8 -24 1 -6
-6 -33 -13 -59 -16 -27 -3 -52 -10 -56 -16 -5 -8 -48 -13 -125 -14 -65 0 -154
-4 -198 -8 -79 -7 -81 -7 -119 24 -21 17 -43 31 -48 31 -5 0 -8 6 -5 13 2 6
-5 24 -15 40 -25 35 -17 75 19 101 24 17 48 20 207 23 98 2 182 5 185 8 3 3
12 3 20 0 9 -4 57 -12 106 -20z m585 1 c-20 -19 -290 -35 -290 -17 0 7 20 11
53 12 51 1 238 14 247 17 2 1 -2 -4 -10 -12z m90 4 c0 -5 -4 -10 -10 -10 -5 0
-10 5 -10 10 0 6 5 10 10 10 6 0 10 -4 10 -10z m231 0 c51 0 69 -3 69 -13 0
-11 -21 -13 -102 -9 -57 2 -105 6 -107 8 -1 1 0 8 4 14 5 7 19 10 37 6 17 -3
61 -6 99 -6z m774 -71 c14 -5 7 -8 -27 -8 -44 -1 -65 8 -51 22 6 7 42 0 78
-14z m-702 -8 c3 -11 2 -22 -1 -25 -10 -11 -212 -6 -212 4 0 6 21 11 48 12
l47 1 -42 4 c-81 8 -43 23 56 23 89 0 99 -2 104 -19z m-241 -49 c5 -5 8 -15 4
-20 -6 -11 -67 -1 -67 11 1 4 1 11 1 16 0 13 48 7 62 -7z m48 -23 c0 -5 -7 -9
-15 -9 -8 0 -15 7 -15 15 0 9 6 12 15 9 8 -4 15 -10 15 -15z m944 -4 c3 -8 1
-15 -4 -15 -6 0 -10 7 -10 15 0 8 2 15 4 15 2 0 6 -7 10 -15z m-916 -22 c-10
-2 -26 -2 -35 0 -10 3 -2 5 17 5 19 0 27 -2 18 -5z m532 -45 c0 -5 -4 -8 -10
-8 -5 0 -10 10 -10 23 0 18 2 19 10 7 5 -8 10 -18 10 -22z m-120 -38 c0 -5 -2
-10 -4 -10 -3 0 -8 5 -11 10 -3 6 -1 10 4 10 6 0 11 -4 11 -10z m-463 -52 c-3
-8 -6 -5 -6 6 -1 11 2 17 5 13 3 -3 4 -12 1 -19z m85 0 c-7 -7 -12 -8 -12 -2
0 14 12 26 19 19 2 -3 -1 -11 -7 -17z m-19 -55 c5 -46 3 -62 -8 -51 -11 10
-17 98 -8 98 6 0 13 -21 16 -47z m-36 -10 c-3 -10 -5 -4 -5 12 0 17 2 24 5 18
2 -7 2 -21 0 -30z m-316 -16 c-16 -16 -20 -5 -8 23 9 22 11 23 14 6 3 -10 0
-23 -6 -29z m100 -10 c-10 -9 -11 -8 -5 6 3 10 9 15 12 12 3 -3 0 -11 -7 -18z
m-714 -40 c-7 -12 -13 -24 -14 -26 -2 -2 -9 2 -17 8 -13 11 -12 15 2 30 24 25
45 16 29 -12z m377 19 c-21 -15 -30 -14 -19 3 3 6 14 11 23 11 13 0 13 -2 -4
-14z m626 -57 l-22 -34 7 30 c7 34 27 63 33 47 1 -5 -7 -25 -18 -43z m117 -51
c-3 -8 -6 -5 -6 6 -1 11 2 17 5 13 3 -3 4 -12 1 -19z"/>
<path d="M530 991 c0 -13 29 -47 30 -34 0 6 7 13 16 15 10 2 5 7 -15 15 -17 6
-31 8 -31 4z"/>
<path d="M595 961 c-18 -7 -17 -8 7 -14 15 -4 37 -3 50 2 16 7 18 10 6 10 -9
1 -22 3 -30 5 -7 3 -22 1 -33 -3z"/>
<path d="M905 941 c-3 -5 -1 -12 5 -16 5 -3 10 1 10 9 0 18 -6 21 -15 7z"/>
<path d="M1298 913 c12 -2 32 -2 45 0 12 2 2 4 -23 4 -25 0 -35 -2 -22 -4z"/>
</g>
</svg>
