<?xml version="1.0" standalone="no"?>
<!DOCTYPE svg PUBLIC "-//W3C//DTD SVG 20010904//EN"
 "http://www.w3.org/TR/2001/REC-SVG-20010904/DTD/svg10.dtd">
<svg version="1.0" xmlns="http://www.w3.org/2000/svg"
 width="334.000000pt" height="151.000000pt" viewBox="0 0 334.000000 151.000000"
 preserveAspectRatio="xMidYMid meet">

<g transform="translate(0.000000,151.000000) scale(0.100000,-0.100000)"
fill="#000000" stroke="none">
<path d="M0 1054 l0 -456 32 -42 c32 -40 33 -41 6 -24 -15 10 -30 18 -33 18
-3 0 -5 -71 -5 -158 l0 -157 41 0 c84 0 120 -96 59 -157 -25 -25 -37 -29 -65
-26 -33 4 -35 2 -35 -24 l0 -28 1670 0 1670 0 0 60 c0 33 -3 60 -7 60 -5 0
-33 -7 -63 -15 -65 -18 -63 -17 -56 -6 6 9 -17 22 -37 20 -7 0 -3 -4 7 -8 15
-6 8 -10 -32 -18 -38 -7 -52 -7 -52 1 0 6 -4 5 -9 -3 -14 -22 -36 -6 -39 29
-4 49 6 70 33 70 36 0 60 11 44 21 -7 4 -21 3 -32 -3 -10 -5 -22 -6 -25 -2 -4
4 -2 9 5 11 7 2 9 11 7 18 -10 25 7 38 22 18 13 -17 13 -17 14 5 0 12 4 22 10
22 5 0 15 18 22 41 7 26 20 45 35 52 12 5 20 13 18 17 -3 4 6 15 20 24 14 9
25 25 25 36 0 11 6 20 14 20 7 0 16 8 20 17 3 10 17 38 31 62 l25 44 0 459 0
458 -364 0 -364 0 -7 -102 c-4 -57 -5 -116 -3 -131 l3 -29 98 67 c98 66 99 67
174 70 59 2 76 0 80 -12 3 -8 0 -18 -6 -23 -10 -5 -9 -9 3 -13 19 -8 21 -33 3
-40 -6 -2 -75 -55 -152 -116 -230 -184 -225 -179 -225 -218 0 -21 -4 -32 -10
-28 -6 4 -8 11 -5 16 4 5 3 14 0 20 -10 15 -43 -17 -41 -39 3 -35 30 -122 38
-122 4 0 8 -13 8 -29 l0 -29 -42 20 c-81 39 -126 56 -132 51 -3 -4 -6 -1 -6 7
0 10 -3 10 -15 0 -8 -7 -15 -9 -15 -6 0 4 -7 1 -15 -8 -8 -8 -15 -19 -15 -24
0 -5 -16 -20 -35 -33 -19 -13 -35 -30 -35 -36 0 -7 -10 -13 -22 -13 -17 0 -23
-6 -24 -22 -1 -13 -5 -34 -8 -48 -5 -19 -4 -20 2 -6 8 18 9 18 15 2 11 -28 8
-36 -12 -36 -23 0 -36 -52 -21 -81 7 -13 7 -19 0 -19 -5 0 -9 -3 -9 -7 3 -21
-2 -33 -12 -28 -6 4 -8 13 -5 20 6 16 -13 35 -34 35 -9 0 -35 20 -58 44 -35
37 -41 50 -36 70 7 30 -12 42 -52 32 -23 -6 -26 -11 -21 -35 5 -23 0 -34 -26
-58 -18 -17 -42 -34 -55 -38 -35 -10 -55 -49 -48 -89 l7 -34 -30 11 c-23 9
-34 7 -55 -6 -21 -14 -24 -23 -20 -46 4 -17 1 -32 -6 -36 -9 -5 -10 -1 -5 14
9 31 -20 53 -60 45 -40 -8 -65 -32 -65 -61 0 -20 -4 -22 -24 -17 -13 3 -37 -1
-52 -9 l-29 -15 -10 41 c-14 57 -56 81 -137 78 -87 -2 -100 -15 -122 -113 -9
-40 -28 -35 -21 5 11 56 -44 94 -96 67 -14 -8 -19 -7 -19 3 0 7 -16 27 -36 43
-21 16 -85 78 -143 138 -58 60 -128 129 -156 155 -144 135 -296 292 -471 491
-27 30 -64 70 -81 89 -33 33 -43 61 -22 61 8 0 8 4 0 14 -6 7 -9 21 -5 30 7
17 29 22 38 7 3 -5 15 -7 26 -4 11 3 20 1 20 -3 0 -5 15 -9 33 -8 17 0 37 -4
44 -9 7 -5 17 -6 23 -2 8 5 170 -120 200 -154 3 -4 23 -20 45 -36 22 -16 54
-43 70 -58 17 -16 59 -55 95 -86 35 -31 91 -81 125 -111 82 -75 150 -130 161
-130 5 0 2 5 -6 10 -12 8 -11 10 8 10 12 0 22 -4 22 -10 0 -5 7 -7 14 -4 11 4
14 -1 12 -23 -2 -22 8 -38 47 -76 27 -27 55 -46 62 -43 9 3 11 -2 7 -16 -4
-17 -2 -20 11 -15 10 4 17 2 17 -3 0 -6 11 -10 25 -10 19 0 23 -4 18 -17 -5
-13 -2 -15 12 -9 11 4 22 2 26 -6 4 -7 12 -9 16 -4 4 4 -2 16 -14 26 l-23 18
35 4 c21 2 31 0 26 -5 -11 -11 -3 -37 11 -37 6 0 8 6 5 14 -3 8 -3 17 1 20 10
11 11 36 1 36 -6 0 -6 7 0 19 6 10 8 21 5 24 -15 14 8 27 29 16 20 -9 20 -9 5
4 -10 8 -14 17 -10 21 3 4 -4 16 -18 27 -21 17 -22 19 -3 10 12 -6 23 -11 26
-11 2 0 3 31 2 68 -1 66 0 68 21 64 19 -3 22 -1 17 19 -4 15 -3 20 5 15 8 -4
10 -2 6 8 -3 8 -12 12 -20 9 -8 -3 -12 -8 -10 -12 2 -3 -7 -7 -21 -7 -23 -2
-22 0 11 22 20 14 36 29 36 35 0 6 5 7 10 4 6 -3 11 -1 11 4 3 21 4 26 12 38
29 46 -73 -16 -324 -196 -10 -7 -19 -11 -19 -8 0 3 73 58 161 124 176 128 221
167 211 179 -4 4 -1 4 5 0 7 -4 21 -2 32 3 42 23 286 203 286 212 0 12 -147
139 -160 138 -5 0 -33 -28 -62 -62 -133 -159 -295 -347 -300 -347 -6 0 26 39
202 245 80 94 145 173 145 178 0 4 -72 7 -159 7 -118 0 -161 -3 -164 -12 -4
-10 -6 -10 -6 0 -1 9 -35 12 -136 12 l-135 0 -1 -127 c-1 -71 -2 -190 -2 -265
0 -79 -4 -138 -9 -138 -5 0 -9 33 -8 73 1 39 1 159 1 265 l-1 192 -530 0 -530
0 0 -456z m1329 362 c-12 -31 -24 -55 -26 -53 -2 2 6 30 18 61 12 31 24 55 26
53 2 -2 -6 -30 -18 -61z m-69 -171 c-12 -31 -24 -54 -26 -52 -2 2 6 29 19 60
12 30 23 54 26 52 2 -2 -7 -29 -19 -60z m-47 -117 c-9 -24 -20 -47 -25 -53 -5
-5 -4 2 1 18 6 15 15 38 21 52 5 14 12 25 15 25 3 0 -3 -19 -12 -42z m-214
-144 c23 -70 40 -129 38 -131 -5 -4 -87 229 -87 245 0 29 11 3 49 -114z m300
46 c-37 -49 -101 -116 -97 -103 4 16 112 143 117 138 2 -2 -7 -18 -20 -35z
m-121 -10 c0 -16 -3 -30 -8 -30 -4 0 -10 -9 -13 -20 -3 -11 -10 -20 -16 -20
-11 0 -2 32 21 78 14 28 15 28 16 -8z m-98 -79 c0 -6 -4 -13 -10 -16 -5 -3
-10 1 -10 9 0 9 5 16 10 16 6 0 10 -4 10 -9z m46 -45 c-9 -19 -16 -37 -16 -40
0 -15 23 -3 50 27 16 17 30 27 30 21 0 -18 -67 -77 -75 -65 -3 6 -11 9 -16 6
-5 -4 -5 5 1 19 6 14 15 38 20 52 6 15 13 24 17 21 3 -4 -2 -22 -11 -41z
m1453 -28 c0 -7 -4 -22 -9 -33 -7 -17 -9 -15 -9 13 -1 17 4 32 9 32 6 0 10 -6
9 -12z m-1505 -13 c-4 -8 -8 -15 -10 -15 -2 0 -4 7 -4 15 0 8 4 15 10 15 5 0
7 -7 4 -15z m971 -317 c33 -50 47 -97 25 -83 -5 3 -10 16 -10 29 0 34 -40 64
-73 55 -15 -4 -27 -5 -27 -3 0 11 33 54 41 54 5 0 24 -24 44 -52z m-1385 -17
c0 -6 -4 -13 -10 -16 -5 -3 -10 1 -10 9 0 9 5 16 10 16 6 0 10 -4 10 -9z
m1758 -107 c14 -49 15 -77 3 -70 -5 3 -12 27 -16 52 -3 26 -9 54 -12 63 -4 10
-3 13 4 6 5 -5 15 -29 21 -51z m101 9 c27 -54 34 -83 22 -83 -6 0 -11 7 -11
15 0 8 -4 15 -9 15 -5 0 -12 11 -15 25 -4 14 -11 25 -16 25 -6 0 -10 9 -10 20
0 32 18 23 39 -17z m-1729 -13 c0 -5 -2 -10 -4 -10 -3 0 -8 5 -11 10 -3 6 -1
10 4 10 6 0 11 -4 11 -10z m-3 -42 c-3 -8 -6 -5 -6 6 -1 11 2 17 5 13 3 -3 4
-12 1 -19z m1845 -100 c-7 -7 -12 -8 -12 -2 0 14 12 26 19 19 2 -3 -1 -11 -7
-17z m370 -20 c-7 -7 -12 -8 -12 -2 0 14 12 26 19 19 2 -3 -1 -11 -7 -17z
m-123 -32 c-10 -27 -16 -33 -26 -24 -7 6 -13 17 -13 26 0 8 3 12 7 9 3 -4 13
2 21 14 20 29 26 17 11 -25z m121 7 c-1 -41 -14 -53 -54 -53 -44 0 -72 12 -63
27 3 5 19 8 34 6 16 -2 37 3 48 11 22 17 35 20 35 9z m-840 -29 c0 -9 -7 -22
-15 -30 -13 -14 -15 -14 -15 0 0 8 4 17 10 21 5 3 6 13 3 22 -4 11 -3 14 5 9
7 -4 12 -14 12 -22z m-1997 -34 c-5 -19 -23 -39 -23 -25 0 9 20 45 24 45 2 0
2 -9 -1 -20z m86 -67 c-1 -27 -119 -78 -119 -53 0 6 8 10 18 11 9 0 33 11 52
24 37 25 50 30 49 18z m3061 -63 c0 -5 -4 -10 -10 -10 -5 0 -10 5 -10 10 0 6
5 10 10 10 6 0 10 -4 10 -10z"/>
<path d="M1716 1502 c5 -5 44 -39 86 -76 l77 -67 93 66 c51 37 97 71 103 76 5
5 -68 9 -180 9 -104 0 -185 -4 -179 -8z"/>
<path d="M2006 1433 c-58 -43 -106 -81 -106 -85 0 -15 273 -239 287 -234 8 3
11 1 8 -4 -3 -5 8 -24 26 -41 33 -33 34 -52 0 -23 -22 19 -59 26 -67 12 -3 -5
-2 -8 3 -7 21 4 34 -3 57 -28 22 -23 26 -24 31 -10 4 9 22 25 41 36 24 15 32
25 27 37 -5 14 -2 16 16 11 15 -3 38 3 64 18 39 22 42 27 40 62 l-1 38 11 -32
12 -32 57 35 56 35 6 72 c3 40 8 105 11 145 l5 72 -239 0 -239 0 -106 -77z"/>
<path d="M1816 1294 c-33 -24 -63 -49 -66 -55 -4 -6 -10 -10 -14 -9 -13 2
-147 -101 -141 -109 6 -11 24 -9 45 4 32 20 84 6 73 -20 -3 -10 1 -15 13 -15
15 0 16 -2 5 -9 -7 -5 -9 -11 -4 -14 13 -8 -1 -100 -16 -105 -7 -2 -6 -8 3
-18 19 -18 27 -18 20 1 -4 8 -1 15 5 15 6 0 12 -6 12 -12 5 -47 4 -68 -4 -68
-4 0 -5 -5 -2 -11 4 -6 13 -8 20 -5 7 2 18 -7 25 -22 8 -19 8 -28 1 -30 -6 -2
-9 -8 -5 -13 3 -5 -2 -9 -10 -9 -9 0 -16 -4 -16 -9 0 -4 -12 -6 -27 -3 -26 4
-27 3 -12 -13 13 -13 21 -15 37 -6 12 6 23 7 26 2 3 -5 -1 -12 -10 -15 -8 -3
-12 -10 -9 -16 8 -14 26 -13 23 1 -2 6 3 14 11 17 9 3 11 0 6 -9 -6 -11 -5
-11 5 -2 14 13 4 37 -12 27 -6 -4 -8 1 -6 12 2 10 12 20 22 22 13 3 16 0 11
-9 -6 -9 0 -11 23 -6 25 5 30 3 25 -8 -8 -21 11 -18 32 5 10 11 22 17 28 13 5
-3 7 -1 3 5 -3 6 -2 13 4 17 5 3 10 14 10 23 0 9 11 26 26 38 14 13 21 25 15
28 -6 4 -8 13 -5 21 5 11 9 10 23 -3 10 -9 16 -20 15 -23 -2 -3 3 -6 10 -6 8
0 11 8 9 18 -3 11 -11 15 -21 12 -11 -5 -14 -2 -9 10 4 10 2 17 -5 17 -7 0 -3
7 8 16 10 8 13 13 7 9 -7 -3 -13 -2 -13 4 0 5 10 12 23 14 21 4 21 4 1 6 -18
1 -20 6 -17 39 l4 38 -86 48 c-47 26 -85 50 -85 52 0 6 43 -17 112 -57 50 -29
53 -30 65 -12 11 14 15 15 22 4 7 -11 9 -11 13 0 3 8 9 9 17 4 11 -6 10 -10
-3 -17 -9 -5 -14 -13 -11 -18 3 -5 14 -2 25 7 10 9 16 21 13 26 -3 5 4 6 16 2
11 -3 21 -4 21 -2 0 5 -239 210 -255 219 -5 3 -37 -14 -69 -38z m119 -453 c3
-5 1 -12 -5 -16 -5 -3 -10 1 -10 9 0 18 6 21 15 7z m-15 -35 c0 -3 -4 -8 -10
-11 -5 -3 -10 -1 -10 4 0 6 5 11 10 11 6 0 10 -2 10 -4z"/>
<path d="M2098 1061 c1 -2 -4 -11 -11 -20 -8 -9 -17 -24 -20 -34 -5 -14 -3
-16 11 -9 9 5 24 12 32 16 8 3 5 4 -8 2 -19 -4 -21 -2 -12 9 7 8 15 14 18 13
20 -2 32 3 32 14 0 9 -3 9 -12 0 -9 -9 -14 -8 -22 1 -6 7 -10 10 -8 8z"/>
<path d="M2035 1030 c4 -6 11 -8 16 -5 14 9 11 15 -7 15 -8 0 -12 -5 -9 -10z"/>
<path d="M1509 1003 c-13 -17 -13 -17 6 -3 11 8 22 16 24 17 2 2 0 3 -6 3 -6
0 -17 -8 -24 -17z"/>
<path d="M2139 1003 c-13 -16 -12 -17 4 -4 16 13 21 21 13 21 -2 0 -10 -8 -17
-17z"/>
<path d="M2056 971 c-3 -5 0 -11 6 -14 10 -3 10 -7 -1 -20 -8 -10 -9 -17 -3
-17 6 0 14 5 17 10 4 6 11 8 16 5 5 -4 9 -1 9 4 0 6 -4 11 -10 11 -5 0 -9 5
-7 11 3 15 -19 23 -27 10z"/>
<path d="M2116 933 c-6 -14 -5 -15 5 -6 7 7 10 15 7 18 -3 3 -9 -2 -12 -12z"/>
<path d="M1501 924 c0 -11 3 -14 6 -6 3 7 2 16 -1 19 -3 4 -6 -2 -5 -13z"/>
<path d="M2501 923 c-1 -7 -4 -12 -8 -12 -23 4 -21 -5 7 -45 42 -62 37 -69
-11 -16 -22 25 -35 35 -29 23 14 -31 13 -35 -10 -23 -20 11 -40 6 -40 -10 0
-4 7 -11 16 -14 14 -5 15 -4 4 9 -17 20 0 19 29 -2 14 -9 21 -11 17 -5 -4 7
-3 12 2 12 13 0 33 -25 27 -33 -3 -4 -2 -5 2 -2 3 3 12 0 20 -6 10 -9 13 -8
13 2 0 20 -38 137 -39 122z"/>
<path d="M1723 913 c4 -3 1 -13 -6 -22 -11 -14 -10 -14 5 -2 16 12 16 31 1 31
-4 0 -3 -3 0 -7z"/>
<path d="M1490 896 c0 -2 7 -7 16 -10 8 -3 12 -2 9 4 -6 10 -25 14 -25 6z"/>
<path d="M1436 868 c3 -4 9 -8 15 -8 5 0 9 4 9 8 0 5 -7 9 -15 9 -8 0 -12 -4
-9 -9z"/>
<path d="M1705 853 c-16 -13 -17 -15 -2 -10 9 4 17 3 17 -1 0 -5 7 -17 16 -28
8 -10 13 -13 9 -6 -3 6 0 12 7 12 8 0 9 3 3 8 -5 4 -10 13 -10 21 0 21 -17 23
-40 4z"/>
<path d="M1430 839 c0 -5 5 -7 10 -4 6 3 10 8 10 11 0 2 -4 4 -10 4 -5 0 -10
-5 -10 -11z"/>
<path d="M1706 803 c-6 -14 -5 -15 5 -6 7 7 10 15 7 18 -3 3 -9 -2 -12 -12z"/>
<path d="M1438 798 c-4 -10 -3 -20 3 -23 5 -4 7 -11 4 -16 -4 -5 -2 -9 3 -9 6
0 12 7 16 15 3 8 1 15 -4 15 -5 0 -10 8 -12 18 -3 16 -4 16 -10 0z"/>
<path d="M1405 680 c-3 -5 -2 -10 4 -10 5 0 13 5 16 10 3 6 2 10 -4 10 -5 0
-13 -4 -16 -10z"/>
<path d="M1412 650 c5 -15 58 -22 58 -8 0 4 -6 8 -14 8 -8 0 -22 3 -32 7 -11
4 -15 2 -12 -7z"/>
<path d="M1383 536 c14 -21 14 -25 2 -30 -8 -3 -12 -12 -9 -21 3 -8 10 -12 15
-9 5 3 9 1 9 -5 0 -5 23 -8 53 -7 41 2 53 7 55 21 3 11 -1 16 -10 12 -7 -2
-12 -11 -10 -18 2 -8 -8 -3 -21 11 -13 14 -23 28 -21 31 2 4 -8 10 -21 13 -14
4 -23 11 -20 16 3 6 -4 10 -16 10 -20 0 -21 -1 -6 -24z"/>
<path d="M1458 543 c6 -2 18 -2 25 0 6 3 1 5 -13 5 -14 0 -19 -2 -12 -5z"/>
<path d="M1 203 c1 -10 4 -29 8 -43 7 -24 7 -24 21 -4 8 11 25 23 38 26 23 6
22 -2 -5 -33 -11 -14 -10 -17 13 -27 32 -15 44 -8 44 24 0 37 -42 74 -85 74
-27 0 -35 -4 -34 -17z"/>
<path d="M3312 204 c-15 -10 -22 -25 -21 -47 0 -26 2 -28 8 -12 5 11 6 25 4
31 -2 7 0 15 6 19 6 3 11 -2 11 -12 0 -10 4 -25 10 -33 6 -10 9 -2 8 28 0 23
-1 42 -2 42 -1 0 -12 -7 -24 -16z"/>
<path d="M3068 150 c-3 -17 -1 -33 4 -36 4 -3 8 3 8 13 0 15 2 16 10 3 7 -11
10 -7 10 18 0 42 -26 44 -32 2z"/>
<path d="M3228 159 c-4 -20 0 -24 23 -26 23 -2 26 1 21 20 -3 12 -7 16 -10 9
-3 -10 -7 -8 -17 4 -11 16 -12 15 -17 -7z"/>
<path d="M3115 149 c-4 -11 -4 -23 -1 -26 3 -4 6 -1 6 6 0 7 10 10 24 7 17 -3
25 1 29 13 2 11 -1 18 -9 18 -8 0 -14 -7 -14 -14 0 -8 -5 -11 -10 -8 -6 4 -8
11 -5 16 4 5 2 9 -4 9 -5 0 -13 -9 -16 -21z"/>
<path d="M3185 140 c3 -5 11 -10 16 -10 6 0 7 5 4 10 -3 6 -11 10 -16 10 -6 0
-7 -4 -4 -10z"/>
<path d="M24 85 c-2 -28 3 -30 43 -14 l28 11 -34 14 c-18 8 -34 14 -35 14 0 0
-2 -11 -2 -25z"/>
</g>
</svg>
