<?xml version="1.0" standalone="no"?>
<!DOCTYPE svg PUBLIC "-//W3C//DTD SVG 20010904//EN"
 "http://www.w3.org/TR/2001/REC-SVG-20010904/DTD/svg10.dtd">
<svg version="1.0" xmlns="http://www.w3.org/2000/svg"
 width="259.000000pt" height="194.000000pt" viewBox="0 0 259.000000 194.000000"
 preserveAspectRatio="xMidYMid meet">

<g transform="translate(0.000000,194.000000) scale(0.100000,-0.100000)"
fill="#000000" stroke="none">
<path d="M0 1721 l0 -219 38 -8 37 -7 -30 -7 c-30 -8 -30 -8 -3 -9 24 -1 52
-21 29 -21 -5 0 -13 -9 -16 -21 -6 -19 -8 -19 -30 -5 l-24 16 -1 -720 0 -720
1295 0 1295 0 0 970 0 970 -60 0 c-47 0 -60 -3 -60 -15 0 -8 -9 -15 -20 -15
-11 0 -20 7 -20 15 0 13 -28 15 -189 15 l-190 0 -3 -25 c-4 -31 -23 -29 -23 3
l1 22 -582 0 c-544 0 -662 -5 -640 -28 8 -7 -14 -32 -27 -32 -6 0 -2 7 9 15
18 14 18 14 0 15 -15 0 -16 3 -6 15 11 13 -33 15 -384 15 l-396 0 0 -219z
m1180 200 c0 -16 -28 -20 -34 -5 -4 9 1 14 14 14 11 0 20 -4 20 -9z m144 -6
c3 -8 1 -15 -4 -15 -6 0 -10 7 -10 15 0 8 2 15 4 15 2 0 6 -7 10 -15z m1026
-68 c0 -30 -19 -57 -35 -51 -20 8 -19 53 2 76 18 20 33 9 33 -25z m-395 -7 c9
-27 -3 -60 -21 -60 -21 0 -28 27 -16 56 14 29 28 31 37 4z m-235 -10 c0 -5 -4
-10 -9 -10 -6 0 -13 5 -16 10 -3 6 1 10 9 10 9 0 16 -4 16 -10z m200 -64 c0
-2 -13 -6 -29 -8 -17 -2 -28 -1 -25 4 5 8 54 12 54 4z m-215 -26 c3 -11 3 -24
0 -30 -4 -6 5 -10 19 -10 14 0 26 -3 26 -7 0 -5 -28 -9 -63 -10 -50 -1 -58 1
-39 9 13 7 22 20 22 33 0 38 24 48 35 15z m-97 -23 c2 -12 -3 -17 -17 -17 -15
0 -21 6 -21 21 0 25 33 22 38 -4z m-458 -8 c0 -6 -6 -9 -14 -6 -9 4 -16 -1
-18 -11 -3 -14 -6 -13 -16 6 -12 21 -11 22 18 22 16 0 30 -5 30 -11z m-845
-29 c3 -5 -1 -10 -9 -10 -9 0 -16 5 -16 10 0 6 4 10 9 10 6 0 13 -4 16 -10z
m1042 4 c-3 -3 -12 -4 -19 -1 -8 3 -5 6 6 6 11 1 17 -2 13 -5z m913 -14 c0 -5
-4 -10 -10 -10 -5 0 -10 5 -10 10 0 6 5 10 10 10 6 0 10 -4 10 -10z m-317 -20
c3 -11 1 -18 -4 -14 -5 3 -9 12 -9 20 0 20 7 17 13 -6z m47 0 c0 -11 -4 -20
-9 -20 -5 0 -7 9 -4 20 3 11 7 20 9 20 2 0 4 -9 4 -20z m-113 -5 c-4 -8 -2
-17 3 -20 25 -16 3 -69 -24 -59 -10 4 -13 9 -7 13 8 5 16 33 20 74 1 4 4 7 7
7 3 0 4 -7 1 -15z m-154 -35 c-15 -14 -19 -15 -21 -2 -4 16 17 34 31 25 4 -3
0 -13 -10 -23z m-177 7 c8 3 14 -1 14 -11 0 -9 5 -16 11 -16 8 0 10 -13 6 -37
-4 -21 -8 -47 -9 -58 -2 -14 6 -24 29 -34 47 -21 54 -63 17 -102 -15 -16 -37
-29 -49 -29 -35 0 -43 -16 -32 -66 10 -44 10 -47 -21 -75 -27 -26 -36 -29 -71
-23 -22 3 -42 13 -46 21 -4 12 -8 13 -20 3 -10 -8 -15 -9 -15 -2 0 6 -10 22
-23 36 -17 18 -27 22 -40 15 -9 -6 -17 -17 -17 -24 0 -8 -9 -15 -20 -15 -11 0
-27 -11 -36 -25 -10 -15 -26 -25 -39 -25 -28 0 -77 18 -85 30 -3 5 -23 10 -45
11 -30 2 -47 10 -67 33 -15 17 -28 38 -28 46 -1 9 -5 6 -10 -7 -5 -13 -14 -23
-19 -23 -13 0 -22 28 -11 35 20 12 9 22 -17 17 -23 -4 -25 -3 -12 10 7 9 21
13 29 11 10 -3 9 1 -4 11 -14 12 -19 28 -18 68 0 29 3 62 5 73 3 11 6 28 6 39
1 14 7 17 26 14 14 -3 28 -1 31 3 3 5 14 5 24 -1 26 -14 34 -12 21 4 -18 22 3
28 35 11 39 -20 63 -19 98 4 23 15 34 17 49 10 10 -6 21 -8 24 -5 3 3 11 -1
17 -8 16 -21 50 -24 51 -6 0 11 11 15 40 15 31 0 39 -4 37 -16 -2 -12 5 -15
29 -11 22 3 30 1 25 -7 -4 -6 -2 -11 3 -11 6 0 10 15 9 33 -2 20 1 31 9 30 6
-2 15 7 18 18 7 22 68 54 73 39 2 -5 10 -6 18 -3z m121 -34 l-27 -28 0 25 c0
20 2 22 10 10 6 -9 10 -10 10 -3 0 6 -5 15 -12 19 -8 5 -6 10 8 15 34 12 40
-9 11 -38z m444 32 c21 6 19 3 -10 -23 -53 -47 -80 -59 -91 -42 -6 8 -9 24 -9
35 1 17 2 17 6 3 6 -24 23 -23 23 1 0 11 5 23 10 26 6 3 10 1 10 -4 0 -6 5
-11 10 -11 6 0 10 8 10 18 0 13 2 14 9 3 6 -8 17 -11 32 -6z m209 -5 c0 -5 -4
-10 -10 -10 -5 0 -10 5 -10 10 0 6 5 10 10 10 6 0 10 -4 10 -10z m133 -2 c6
-21 -4 -48 -19 -48 -14 0 -20 41 -7 53 10 11 21 8 26 -5z m-683 -2 c0 -2 -7
-6 -15 -10 -8 -3 -15 -1 -15 4 0 6 7 10 15 10 8 0 15 -2 15 -4z m397 -22 c-3
-3 -12 -4 -19 -1 -8 3 -5 6 6 6 11 1 17 -2 13 -5z m-247 -8 c0 -3 -4 -8 -10
-11 -5 -3 -10 -1 -10 4 0 6 5 11 10 11 6 0 10 -2 10 -4z m227 -23 c3 -7 -4 -9
-16 -6 -12 3 -18 9 -15 15 7 11 26 6 31 -9z m-1257 -13 c0 -5 -4 -10 -10 -10
-5 0 -10 5 -10 10 0 6 5 10 10 10 6 0 10 -4 10 -10z m869 -12 c-1 -18 -2 -19
-6 -5 -2 9 -9 15 -14 12 -5 -4 -9 -1 -9 4 0 6 7 11 15 11 9 0 15 -9 14 -22z
m-998 -21 c-10 -9 -11 -8 -5 6 3 10 9 15 12 12 3 -3 0 -11 -7 -18z m1109 3 c0
-5 -4 -10 -9 -10 -6 0 -13 5 -16 10 -3 6 1 10 9 10 9 0 16 -4 16 -10z m-1670
-59 c0 -5 3 -16 6 -24 3 -9 -3 -16 -15 -20 -25 -6 -35 6 -26 33 6 20 35 29 35
11z m-120 -31 c0 -5 -2 -10 -4 -10 -3 0 -8 5 -11 10 -3 6 -1 10 4 10 6 0 11
-4 11 -10z m744 -20 c-10 -4 -21 -6 -24 -3 -8 7 24 22 34 16 5 -4 1 -10 -10
-13z m-606 -26 c12 -8 22 -12 22 -7 0 4 16 -9 35 -30 39 -42 46 -77 16 -77
-11 0 -22 -6 -25 -12 -3 -10 -9 -8 -19 5 -18 21 -27 22 -27 1 0 -32 -25 -6
-28 29 -2 26 -7 34 -18 30 -8 -3 -14 -13 -14 -23 0 -22 -35 -33 -50 -15 -8 9
-8 14 0 17 6 2 12 13 13 25 1 16 5 19 13 12 8 -7 11 -5 10 8 0 9 7 19 17 21
11 2 17 -3 17 -15 1 -17 1 -17 12 1 8 15 8 21 0 24 -13 4 -16 22 -4 22 4 0 18
-7 30 -16z m-143 -4 c3 -5 -1 -10 -10 -10 -9 0 -13 5 -10 10 3 6 8 10 10 10 2
0 7 -4 10 -10z m8 -37 c-7 -2 -19 -2 -25 0 -7 3 -2 5 12 5 14 0 19 -2 13 -5z
m1864 -45 c-3 -8 -6 -5 -6 6 -1 11 2 17 5 13 3 -3 4 -12 1 -19z m-117 -28 c0
-5 -5 -10 -11 -10 -5 0 -7 5 -4 10 3 6 8 10 11 10 2 0 4 -4 4 -10z m160 -10
c0 -5 -4 -10 -10 -10 -5 0 -10 5 -10 10 0 6 5 10 10 10 6 0 10 -4 10 -10z
m-40 -30 c0 -5 -5 -10 -11 -10 -5 0 -7 5 -4 10 3 6 8 10 11 10 2 0 4 -4 4 -10z
m210 6 c0 -9 -30 -14 -35 -6 -4 6 3 10 14 10 12 0 21 -2 21 -4z m37 -2 c-3 -3
-12 -4 -19 -1 -8 3 -5 6 6 6 11 1 17 -2 13 -5z m-1028 -95 c-25 -6 -59 5 -59
20 0 5 19 3 41 -3 36 -9 38 -11 18 -17z m-189 -604 c0 -13 -4 -27 -10 -30 -6
-4 -10 8 -10 30 0 22 4 34 10 30 6 -3 10 -17 10 -30z m93 1 c7 -17 -14 -27
-42 -19 -35 9 -24 33 15 33 12 0 24 -6 27 -14z m52 -16 c3 -5 1 -10 -4 -10 -6
0 -11 5 -11 10 0 6 2 10 4 10 3 0 8 -4 11 -10z m-75 -134 c0 -8 -4 -18 -10
-21 -5 -3 -10 -15 -10 -26 0 -10 -4 -19 -10 -19 -5 0 -10 5 -10 10 0 6 -7 10
-15 10 -23 0 -18 16 11 39 31 25 44 26 44 7z m136 -1 c19 -15 19 -15 0 -30
-11 -8 -16 -15 -11 -15 4 0 6 -3 3 -6 -3 -3 -15 0 -25 7 -13 8 -18 19 -15 35
5 28 20 30 48 9z m834 -16 c0 -12 -27 -11 -35 1 -11 17 5 32 21 19 8 -6 14
-15 14 -20z"/>
<path d="M1486 1463 c6 -4 14 -15 17 -23 5 -11 6 -9 4 4 -1 11 -9 21 -17 23
-10 3 -11 2 -4 -4z"/>
<path d="M1502 1371 c-11 -7 -11 -9 0 -13 7 -3 19 1 26 8 10 11 10 14 0 14 -7
0 -19 -4 -26 -9z"/>
<path d="M2050 1580 c0 -5 5 -10 11 -10 5 0 7 5 4 10 -3 6 -8 10 -11 10 -2 0
-4 -4 -4 -10z"/>
</g>
</svg>
